<?xml version="1.0" encoding="utf-8"?>
<!-- Generator: Adobe Illustrator 25.0.1, SVG Export Plug-In . SVG Version: 6.00 Build 0)  -->
<svg version="1.1" id="Layer_1" xmlns="http://www.w3.org/2000/svg" xmlns:xlink="http://www.w3.org/1999/xlink" x="0px" y="0px"
	 viewBox="0 0 600 600" style="enable-background:new 0 0 600 600;" xml:space="preserve">
<style type="text/css">
	.st0{fill:#FFFFFF;}
</style>
<path class="st0" d="M441.1,352.6c-8.2-10-20.3-15.7-33.2-15.7H334l32.5-162c8.3-41.1-2.2-83.3-28.8-115.8
	C311.2,26.6,271.9,8,229.9,8c-5.6,0-10.4,4-11.5,9.5l-65.9,328c-0.1,0.3-0.2,0.6-0.2,0.9l-1.2,6c-8.1,40.4,2.2,81.8,28.3,113.6
	C205.5,497.7,244,516,285.2,516h43l-12.4,61.9c-1,4.9,1.3,9.9,5.7,12.5c1.8,1,3.8,1.6,5.9,1.6c2.8,0,5.6-1,7.7-2.9l87.5-76
	c0.3-0.2,0.5-0.5,0.7-0.7c1.3-1.3,2.2-2.9,2.6-4.2c0.1-0.2,0.2-0.4,0.2-0.6c0.1-0.4,0.3-0.8,0.3-1.1L450,388.2
	C452.5,375.6,449.3,362.6,441.1,352.6z M383.2,516l-37.6,32.7l6.6-32.7H383.2z M343.5,170.2L310,336.8H178.2l61.2-304.9
	c31.2,2.6,60.1,17.7,80,42C341.6,100.9,350.3,136,343.5,170.2z M282.8,492.3c-0.3-0.1-0.7-0.1-1-0.1c-32.3-1.8-62.5-17.2-82.9-42.1
	c-20.6-25.1-29.6-57.5-25-89.6h137.5c0.4,0.1,0.8,0.1,1.2,0.1h12c0.4,0,0.8,0,1.1-0.1h82.3c5.8,0,11.3,2.6,15,7.1
	c3.7,4.5,5.2,10.4,4,16.1l-21.8,108.8H296.7c-0.3-0.1-0.7-0.1-1-0.1L282.8,492.3C282.8,492.3,282.8,492.3,282.8,492.3z"/>
</svg>
