<svg xmlns="http://www.w3.org/2000/svg" xml:space="preserve" viewBox="0 0 256 256"><g fill="none" stroke-miterlimit="10" stroke-width="0" transform="matrix(2.8 0 0 2.8 1 1)"><circle cx="45" cy="45" r="45" fill="#229e45"/><path fill="#f8e509" d="m45 68 36-23-36-23L9 45l36 23z"/><path fill="#2b49a3" d="M61 45a15 15 0 1 1-31 0 15 15 0 0 1 31 0z"/><path fill="#ffffef" d="M41 54h-1l-1-1h2v1m10 3-1-1v1-2l1 1m-5-3v-1 1-1h-1 1v-1 1h1-1m11-1h-1v-1h1v1m-11-3h-1v-1h1v-1 1h1-1m-12-4h-1l-1-1h2v1m1 7v-1l-1 1v-1h1v-1 1h1-1m16-9h-1v-1h1M41 47l-1-1h-1l1-1 1 1"/><path fill="#fff" d="m60 50 1-2c-9-7-18-11-29-10l-1 3c14-2 23 4 29 9z"/></g></svg>